#!OML:ASF F:\VICON\USERDATA\INSTALL\Justin_Nancy\Justin_Nancy.ASF
:FULLY-SPECIFIED
:DEGREES
162
root -9.26279 17.719 -11.1229 -0.377245 -2.34311 0.335185
lowerback 6.58333 -0.310843 -1.36238
upperback 0.120419 -0.410925 2.9357
thorax -3.53895 -0.157722 3.84983
lowerneck -17.3766 -3.38265 -8.98928
upperneck 22.3115 -3.39131 4.76883
head 10.244 -1.77356 2.71999
rclavicle -1.46604e-014 1.66979e-014
rhumerus -35.0687 -18.5788 -74.7841
rradius 24.6635
rwrist 10.8322
rhand -13.2942 11.7024
rfingers 7.12502
rthumb 12.8096 -17.8846
lclavicle -1.46604e-014 1.66979e-014
lhumerus -27.3703 8.0208 85.5569
lradius 25.594
lwrist -12.0342
lhand -21.9943 13.7683
lfingers 7.12502
lthumb 4.41425 43.7023
rfemur -13.39 0.713689 25.4179
rtibia 19.7808
rfoot -3.42417 -3.95914
rtoes 8.27856
lfemur -9.14213 -1.59967 -20.2848
ltibia 56.4299
lfoot 15.121 -17.0057
ltoes -13.0157
163
root -9.28264 17.7296 -10.989 -0.53028 -2.67922 0.111842
lowerback 6.73266 -0.174628 -1.30472
upperback 0.148755 -0.220417 3.06513
thorax -3.60795 -0.0621661 3.93601
lowerneck -17.2819 -3.37433 -9.1074
upperneck 22.133 -3.34843 4.76284
head 10.1612 -1.76324 2.74181
rclavicle 1.36664e-014 -2.70347e-014
rhumerus -34.7601 -17.5153 -75.2578
rradius 24.839
rwrist 9.77187
rhand -14.092 11.5694
rfingers 7.12502
rthumb 12.0404 -18.0643
lclavicle 1.36664e-014 -2.70347e-014
lhumerus -27.7335 8.0826 85.6982
lradius 25.5525
lwrist -12.2216
lhand -22.8085 12.9929
lfingers 7.12502
lthumb 3.62805 42.9418
rfemur -12.4894 0.946528 25.772
rtibia 19.3716
rfoot -3.63875 -4.00205
rtoes 7.89169
lfemur -10.1833 -1.15406 -19.8549
ltibia 57.9474
lfoot 12.1146 -16.1481
ltoes -13.5893
164
root -9.29766 17.7339 -10.8571 -0.660865 -2.81568 0.0687495
lowerback 6.91229 -0.0613012 -1.24784
upperback 0.200871 -0.0661771 3.04203
thorax -3.66681 0.0136296 3.86589
lowerneck -17.3718 -3.41551 -9.28477
upperneck 22.0905 -3.4043 4.99649
head 10.1747 -1.77486 2.84618
rclavicle -2.28602e-015 -1.66979e-014
rhumerus -34.4277 -17.2157 -75.5398
rradius 24.9792
rwrist 9.42742
rhand -14.2506 10.8152
rfingers 7.12502
rthumb 11.8875 -18.8274
lclavicle -2.28602e-015 -1.66979e-014
lhumerus -27.8 8.40308 85.6913
lradius 25.2993
lwrist -12.7475
lhand -22.4793 12.9768
lfingers 7.12502
lthumb 3.94594 42.92
rfemur -11.7767 0.97603 25.8761
rtibia 19.1762
rfoot -3.91014 -3.9541
rtoes 7.35963
lfemur -11.1297 -0.8451 -19.6491
ltibia 59.2526
lfoot 10.9853 -14.4988
ltoes -11.3806
165
root -9.31201 17.7427 -10.733 -0.643531 -2.78867 -0.109059
lowerback 7.09424 -0.0228248 -1.05828
upperback 0.0968064 0.00318293 3.03902
thorax -3.88231 0.0488435 3.75099
lowerneck -17.1677 -3.40163 -9.16852
upperneck 22.0179 -3.41445 4.90994
head 10.1069 -1.78135 2.79459
rclavicle 3.13086e-015 -7.95139e-016
rhumerus -34.3611 -16.7758 -75.7497
rradius 25.2758
rwrist 9.25092
rhand -13.6218 10.5199
rfingers 7.12502
rthumb 12.4938 -19.0866
lclavicle 3.13086e-015 -7.95139e-016
lhumerus -28.1323 8.89762 85.5538
lradius 25.0561
lwrist -13.0768
lhand -21.7708 14.0923
lfingers 7.12502
lthumb 4.63007 44.0217
rfemur -11.3301 0.917199 26.1296
rtibia 19.1083
rfoot -4.0617 -3.91015
rtoes 6.93676
lfemur -12.4168 -0.622823 -19.272
ltibia 60.4776
lfoot 10.4006 -13.1647
ltoes -8.99871
166
root -9.32971 17.7481 -10.6084 -0.533338 -2.63569 -0.155911
lowerback 7.07462 -0.05722 -1.05885
upperback 0.0421757 -0.0411922 3.05091
thorax -3.92483 0.0281111 3.76871
lowerneck -17.1495 -3.393 -9.23116
upperneck 22.0056 -3.40602 4.98958
head 10.1009 -1.77355 2.83471
rclavicle -1.78906e-015 -1.90833e-014
rhumerus -34.2071 -15.8075 -76.225
rradius 26.0733
rwrist 9.02703
rhand -14.1237 11.8328
rfingers 7.12502
rthumb 12.0098 -17.8027
lclavicle -1.78906e-015 -1.90833e-014
lhumerus -28.471 9.23628 85.5071
lradius 25.0368
lwrist -13.2351
lhand -21.7628 15.5306
lfingers 7.12502
lthumb 4.63781 45.4598
rfemur -10.9847 0.798683 26.2517
rtibia 19.1281
rfoot -4.39844 -4.05583
rtoes 7.44852
lfemur -13.8143 -0.498483 -19.0573
ltibia 61.5975
lfoot 9.1794 -12.0448
ltoes -9.30032
167
root -9.34794 17.7478 -10.4832 -0.494398 -2.64617 -0.290356
lowerback 7.12109 0.0254409 -0.962382
upperback 0.00275799 0.0783849 3.05641
thorax -4.00056 0.087162 3.70813
lowerneck -17.168 -3.41614 -9.29141
upperneck 22.1076 -3.45473 5.1181
head 10.1482 -1.78718 2.88536
rclavicle -1.3418e-015 3.18055e-014
rhumerus -33.9407 -15.9623 -76.165
rradius 26.7554
rwrist 11.0628
rhand -13.9097 12.3361
rfingers 7.12502
rthumb 12.2161 -17.2872
lclavicle -1.3418e-015 3.18055e-014
lhumerus -28.7088 9.6393 85.4184
lradius 24.9762
lwrist -13.5237
lhand -22.611 12.965
lfingers 7.12502
lthumb 3.81872 42.9106
rfemur -10.5461 0.946483 26.4738
rtibia 19.1301
rfoot -4.86609 -4.41457
rtoes 7.70481
lfemur -15.0241 -0.186772 -18.7708
ltibia 62.5852
lfoot 7.43111 -10.7684
ltoes -11.0963
168
root -9.36593 17.7453 -10.3645 -0.470238 -2.84588 -0.425817
lowerback 7.15402 0.120573 -0.902865
upperback 0.0325238 0.208892 3.03522
thorax -3.99713 0.15025 3.63846
lowerneck -17.0919 -3.37702 -9.16244
upperneck 21.9688 -3.43861 5.11374
head 10.0795 -1.76843 2.86309
rclavicle -1.39149e-015 3.10104e-014
rhumerus -33.5042 -17.1635 -75.6063
rradius 27.1121
rwrist 15.7387
rhand -10.0859 9.39998
rfingers 7.12502
rthumb 15.9009 -19.9672
lclavicle -1.39149e-015 3.10104e-014
lhumerus -28.7689 10.1931 85.1716
lradius 24.7107
lwrist -13.609
lhand -21.5579 13.7298
lfingers 7.12502
lthumb 4.83569 43.6546
rfemur -10.108 1.35562 26.7086
rtibia 19.13
rfoot -5.15685 -4.7742
rtoes 7.37289
lfemur -16.2252 0.233462 -18.4858
ltibia 63.3823
lfoot 6.3263 -9.47497
ltoes -11.4009
169
root -9.37783 17.7436 -10.2429 -0.478914 -2.82788 -0.602154
lowerback 7.1618 0.184738 -0.673432
upperback 0.132762 0.310037 3.00403
thorax -3.90285 0.193661 3.46435
lowerneck -17.1553 -3.43494 -9.07381
upperneck 21.8728 -3.52075 5.05552
head 10.0609 -1.8033 2.81416
rclavicle -7.70291e-015 -2.62396e-014
rhumerus -32.9421 -16.7233 -76.1301
rradius 27.7176
rwrist 15.4241
rhand -8.12748 4.65052
rfingers 7.12502
rthumb 17.7862 -24.5561
lclavicle -7.70291e-015 -2.62396e-014
lhumerus -28.702 10.6281 85.0593
lradius 24.527
lwrist -13.4907
lhand -20.7207 15.0473
lfingers 7.12502
lthumb 5.64401 44.9522
rfemur -9.58455 1.3964 26.9668
rtibia 19.1381
rfoot -5.51467 -4.9622
rtoes 6.57807
lfemur -17.303 0.431417 -18.2078
ltibia 63.9405
lfoot 5.25324 -8.15705
ltoes -11.3189
170
root -9.38573 17.7505 -10.1169 -0.468384 -2.72498 -0.423298
lowerback 7.18812 0.246162 -0.696521
upperback 0.141755 0.383014 2.8259
thorax -3.91169 0.228726 3.28367
lowerneck -17.2225 -3.52053 -8.96059
upperneck 21.8746 -3.66594 5.05408
head 10.0832 -1.85988 2.77383
rclavicle 8.00108e-015 -6.36111e-015
rhumerus -32.452 -16.1634 -76.7686
rradius 27.1336
rwrist 11.6117
rhand -10.3528 7.24637
rfingers 7.12502
rthumb 15.6439 -22.1411
lclavicle 8.00108e-015 -6.36111e-015
lhumerus -28.8398 10.6547 85.0117
lradius 24.5661
lwrist -12.9662
lhand -19.759 17.0209
lfingers 7.12502
lthumb 6.57247 46.8989
rfemur -9.17586 1.28673 26.7842
rtibia 19.2595
rfoot -6.0102 -5.0889
rtoes 6.48012
lfemur -18.3031 0.376184 -18.4244
ltibia 64.2197
lfoot 4.12768 -6.61194
ltoes -11.277
171
root -9.39192 17.7559 -9.98355 -0.615631 -2.85727 -0.333493
lowerback 7.26465 0.299996 -0.702109
upperback 0.142111 0.452195 2.75903
thorax -3.95805 0.26302 3.2099
lowerneck -17.0362 -3.53493 -9.12264
upperneck 21.8803 -3.68711 5.16723
head 10.0576 -1.8728 2.83968
rclavicle 1.19271e-015 -1.27222e-014
rhumerus -31.9372 -15.8806 -77.0308
rradius 26.4968
rwrist 9.85189
rhand -11.8072 9.39439
rfingers 7.12502
rthumb 14.2428 -20.0972
lclavicle 1.19271e-015 -1.27222e-014
lhumerus -29.1858 10.9435 84.9671
lradius 24.6376
lwrist -12.2387
lhand -19.2461 16.1968
lfingers 7.12502
lthumb 7.06758 46.0588
rfemur -8.53323 1.28094 26.6925
rtibia 19.3368
rfoot -6.50818 -5.07441
rtoes 7.24045
lfemur -18.9997 0.485589 -18.5566
ltibia 64.3001
lfoot 3.1031 -5.26196
ltoes -11.6481
172
root -9.39513 17.7589 -9.84415 -0.749121 -3.2386 -0.327794
lowerback 7.17958 0.429203 -0.579326
upperback 0.232072 0.628343 2.66858
thorax -3.82511 0.345303 3.02702
lowerneck -16.9374 -3.52777 -9.19561
upperneck 21.8767 -3.68923 5.25951
head 10.0411 -1.87058 2.88521
rclavicle 3.62782e-015 1.27222e-014
rhumerus -31.5204 -15.1936 -77.5611
rradius 26.1091
rwrist 7.41255
rhand -14.0069 11.8036
rfingers 7.12502
rthumb 12.1225 -17.8252
lclavicle 3.62782e-015 1.27222e-014
lhumerus -29.4402 11.019 84.9361
lradius 24.6844
lwrist -11.4692
lhand -15.1219 24.9968
lfingers 7.12502
lthumb 11.0471 54.6861
rfemur -7.86323 1.29405 26.7073
rtibia 19.3949
rfoot -7.0987 -4.8765
rtoes 7.91228
lfemur -19.6866 0.762194 -18.6067
ltibia 64.2541
lfoot 2.20813 -3.93249
ltoes -11.1858
173
root -9.40317 17.7647 -9.71075 -0.704197 -3.62906 -0.500824
lowerback 6.9866 0.581263 -0.334923
upperback 0.330316 0.845084 2.62846
thorax -3.62306 0.445957 2.8251
lowerneck -17.1645 -3.53218 -9.18057
upperneck 21.9337 -3.70181 5.35082
head 10.1064 -1.86196 2.91298
rclavicle -1.55052e-014 7.95139e-015
rhumerus -31.1511 -15.6229 -77.4325
rradius 27.1547
rwrist 11.0147
rhand -12.1369 8.38903
rfingers 7.12502
rthumb 13.925 -21.1247
lclavicle -1.55052e-014 7.95139e-015
lhumerus -29.6138 11.104 84.8744
lradius 24.746
lwrist -11.3479
lhand -10.179 35.1155
lfingers 7.12502
lthumb 15.8112 64.4899
rfemur -7.39509 1.42581 26.9355
rtibia 19.4364
rfoot -7.65735 -4.80592
rtoes 7.7221
lfemur -20.5667 1.01045 -18.4175
ltibia 64.1353
lfoot 1.39249 -2.8008
ltoes -9.61956
174
root -9.41458 17.7588 -9.59253 -0.630014 -3.81376 -0.635337
lowerback 7.10297 0.620707 -0.222326
upperback 0.22768 0.911105 2.64908
thorax -3.79687 0.478919 2.77566
lowerneck -17.0795 -3.43997 -9.15006
upperneck 21.9522 -3.56483 5.25262
head 10.0833 -1.80906 2.89291
rclavicle -4.42296e-015 -2.06736e-014
rhumerus -30.849 -15.4718 -77.4734
rradius 27.3331
rwrist 11.7385
rhand -11.9609 8.58091
rfingers 7.12502
rthumb 14.0947 -20.9211
lclavicle -4.42296e-015 -2.06736e-014
lhumerus -30.1069 11.5943 84.6918
lradius 24.8499
lwrist -11.3689
lhand -9.4112 36.6773
lfingers 7.12502
lthumb 16.5506 65.9915
rfemur -7.0517 1.67792 27.1598
rtibia 19.499
rfoot -8.00175 -5.03664
rtoes 7.01227
lfemur -21.5369 1.07804 -18.2436
ltibia 63.9428
lfoot 0.583329 -2.0389
ltoes -8.13585
175
root -9.41861 17.745 -9.47552 -0.690012 -4.00762 -0.85267
lowerback 7.32081 0.689783 0.093732
upperback 0.212309 1.03212 2.63776
thorax -3.93541 0.533883 2.57131
lowerneck -17.032 -3.41722 -9.10822
upperneck 22.03 -3.53438 5.18482
head 10.0977 -1.80091 2.86736
rclavicle -6.78353e-015 -5.56597e-015
rhumerus -30.5653 -15.149 -77.77
rradius 27.5033
rwrist 11.0095
rhand -12.289 9.07078
rfingers 7.12502
rthumb 13.7785 -20.453
lclavicle -6.78353e-015 -5.56597e-015
lhumerus -30.2817 11.7922 84.5976
lradius 24.5934
lwrist -11.4755
lhand -7.63165 40.0009
lfingers 7.12502
lthumb 18.2632 69.1635
rfemur -6.57738 1.70802 27.4242
rtibia 19.6233
rfoot -8.30525 -5.07938
rtoes 5.99354
lfemur -22.3053 1.10546 -18.04
ltibia 63.6186
lfoot -0.496686 -1.32291
ltoes -7.73761
